<?xml version="1.0" standalone="no"?>
<!DOCTYPE svg PUBLIC "-//W3C//DTD SVG 20010904//EN"
 "http://www.w3.org/TR/2001/REC-SVG-20010904/DTD/svg10.dtd">
<svg version="1.0" xmlns="http://www.w3.org/2000/svg"
 width="377.000000pt" height="353.000000pt" viewBox="0 0 377.000000 353.000000"
 preserveAspectRatio="xMidYMid meet">

<g transform="translate(0.000000,353.000000) scale(0.100000,-0.100000)"
fill="#000000" stroke="none">
<path d="M1684 3523 c-11 -4 -169 -31 -209 -36 -11 -1 -25 -5 -32 -10 -6 -4
-18 -4 -27 -1 -9 3 -16 2 -16 -4 0 -6 -18 -13 -40 -17 -22 -4 -40 -10 -40 -15
0 -5 -18 -11 -40 -15 -22 -4 -40 -11 -40 -17 0 -6 -7 -8 -15 -4 -8 3 -15 2
-15 -2 0 -8 -60 -36 -72 -33 -5 0 -8 -4 -8 -10 0 -5 -5 -7 -10 -4 -6 4 -16 2
-23 -3 -7 -5 -29 -19 -49 -31 -21 -12 -55 -30 -75 -42 -21 -12 -52 -32 -70
-45 -17 -13 -35 -24 -40 -24 -5 0 -16 -8 -25 -17 -9 -10 -35 -31 -58 -48 -49
-36 -253 -238 -277 -274 -18 -28 -30 -44 -54 -70 -9 -10 -33 -47 -55 -82 -21
-35 -41 -66 -44 -69 -3 -3 -26 -48 -52 -100 -50 -100 -79 -173 -107 -277 -10
-35 -20 -66 -24 -69 -4 -4 -7 -18 -7 -30 0 -13 -5 -26 -10 -29 -6 -4 -8 -10
-5 -14 2 -5 -2 -46 -10 -92 -35 -195 -29 -437 14 -644 43 -201 160 -482 257
-612 13 -17 24 -34 24 -37 0 -3 8 -15 18 -25 21 -24 31 -37 59 -77 34 -48 232
-238 298 -286 85 -62 175 -120 232 -149 26 -13 50 -27 53 -30 3 -3 22 -12 43
-20 21 -7 47 -22 58 -32 10 -10 23 -15 28 -12 5 3 12 1 15 -4 3 -4 18 -11 33
-14 16 -3 42 -11 58 -18 17 -7 35 -14 40 -14 17 -3 69 -16 85 -22 8 -4 19 -5
24 -4 5 1 16 -1 25 -5 19 -9 28 -11 101 -23 73 -13 522 -14 554 -1 13 5 46 10
73 11 26 1 53 5 58 9 6 4 28 11 50 14 60 11 226 68 273 94 12 7 27 10 32 7 6
-3 10 -2 10 2 0 9 74 45 86 43 4 -1 10 2 13 7 6 10 108 73 117 73 9 0 69 44
77 58 4 6 14 12 22 12 8 0 18 6 22 13 4 8 21 22 36 32 41 26 222 210 267 271
21 28 44 57 52 65 22 24 58 78 58 87 0 4 8 17 18 28 17 18 132 243 132 258 0
5 7 22 14 39 24 52 53 147 71 232 10 44 22 100 27 125 5 25 10 137 11 250 1
243 -19 382 -83 574 -34 99 -126 305 -152 341 -25 33 -78 118 -78 125 0 5 -3
10 -7 12 -5 2 -27 28 -50 58 -43 57 -249 270 -261 270 -7 0 -60 43 -93 75 -9
8 -21 15 -27 15 -6 0 -15 6 -19 13 -8 12 -24 22 -95 61 -21 11 -38 23 -38 28
0 4 -7 8 -15 8 -15 0 -55 19 -65 31 -3 3 -22 12 -42 20 -21 7 -38 16 -38 21 0
4 -7 5 -15 2 -8 -4 -15 -1 -15 5 0 6 -7 8 -15 5 -8 -4 -15 -2 -15 4 0 6 -18
13 -40 17 -22 4 -40 11 -40 15 0 5 -26 14 -57 20 -32 6 -65 14 -73 17 -8 3
-19 7 -25 8 -5 0 -17 4 -25 7 -18 8 -68 17 -125 24 -56 6 -467 13 -481 7z
m433 -69 c593 -86 1064 -423 1324 -945 122 -246 170 -457 171 -754 1 -275 -52
-503 -177 -755 -186 -376 -540 -694 -936 -840 -485 -179 -1034 -130 -1484 133
-179 105 -401 310 -528 487 -69 98 -180 309 -216 416 -148 431 -119 920 79
1314 88 176 170 290 309 433 290 299 656 475 1081 520 92 10 280 5 377 -9z"/>
<path d="M1745 3423 c-22 -2 -80 -10 -130 -19 -527 -90 -974 -416 -1214 -884
-124 -240 -183 -487 -182 -760 1 -571 271 -1068 758 -1396 139 -94 410 -207
558 -233 33 -5 89 -15 125 -21 80 -14 295 -18 405 -8 384 35 748 210 1030 493
237 240 403 564 461 900 23 137 24 397 1 525 -42 228 -111 418 -215 590 -338
555 -953 868 -1597 813z m325 -157 c109 -12 169 -24 187 -38 7 -5 17 -7 23 -3
6 4 16 2 23 -3 7 -6 29 -13 50 -17 20 -4 37 -12 37 -17 0 -5 9 -6 20 -3 11 4
20 2 20 -4 0 -5 16 -13 35 -17 19 -3 35 -9 35 -13 0 -4 25 -16 55 -26 30 -11
55 -22 55 -26 0 -4 16 -13 35 -19 19 -6 35 -16 35 -21 0 -6 5 -7 10 -4 6 3 10
1 10 -4 0 -6 5 -11 11 -11 14 0 129 -90 129 -101 0 -5 7 -9 15 -9 15 0 210
-190 248 -241 10 -13 33 -45 52 -70 29 -39 56 -85 96 -159 8 -13 57 -124 79
-175 17 -41 41 -120 45 -150 1 -5 5 -17 8 -25 28 -65 54 -446 32 -468 -4 -4
-100 -7 -214 -8 -114 0 -213 -4 -219 -8 -7 -4 -12 -16 -12 -26 0 -23 -16 -35
-23 -17 -2 6 -2 26 0 42 l5 30 203 -3 204 -3 15 23 c18 28 31 101 22 124 -8
22 -23 8 -30 -29 -10 -55 -17 -57 -228 -56 -147 0 -197 4 -211 14 -19 14 -33
12 -73 -7 -20 -9 -199 -6 -239 4 -11 3 -25 1 -31 -4 -7 -5 -16 -8 -20 -7 -5 1
-55 1 -111 0 -83 -1 -103 -4 -103 -15 0 -8 10 -22 22 -30 27 -19 203 -22 243
-4 19 9 31 8 53 -2 26 -14 23 -14 -53 -21 -44 -4 -127 -5 -185 -2 -107 5 -145
17 -157 51 -3 9 -12 24 -18 32 -7 8 -29 45 -48 82 -20 37 -47 84 -61 105 -14
21 -26 43 -26 50 0 6 -8 19 -17 28 -18 18 -18 18 -101 -83 -15 -18 -36 -43
-48 -55 -11 -12 -29 -34 -38 -49 -20 -30 -17 -37 73 -191 26 -45 60 -104 75
-130 14 -27 68 -121 119 -210 51 -89 96 -170 100 -179 6 -16 23 -18 167 -18
178 0 180 1 139 65 -10 17 -24 41 -31 55 -7 14 -15 27 -18 30 -3 3 -21 35 -40
73 -19 37 -38 67 -42 67 -3 0 -12 16 -19 35 -7 19 -16 35 -20 35 -4 0 -14 18
-23 41 -9 23 -28 57 -41 77 -14 20 -25 41 -25 47 0 6 68 11 187 11 179 2 188
3 205 24 10 12 25 20 34 18 14 -3 16 -25 18 -188 1 -157 3 -185 16 -185 11 0
19 20 28 70 7 39 16 86 21 105 31 125 40 173 35 181 -9 14 15 39 32 32 11 -4
13 -25 9 -102 -2 -53 -1 -106 2 -118 9 -39 31 -25 48 30 9 28 19 59 22 67 3 8
7 23 8 32 1 10 4 20 6 22 2 2 93 6 201 9 157 4 200 2 209 -9 6 -7 8 -18 4 -24
-8 -13 -26 -108 -26 -137 1 -12 -4 -25 -9 -28 -6 -4 -8 -11 -4 -16 3 -5 1 -15
-4 -22 -5 -7 -15 -36 -21 -66 -6 -30 -15 -59 -20 -65 -5 -6 -14 -27 -20 -46
-21 -68 -103 -215 -166 -300 -22 -30 -44 -61 -50 -69 -25 -34 -155 -161 -164
-161 -6 0 -11 -5 -11 -12 0 -19 -42 -58 -62 -58 -10 0 -18 -6 -18 -14 0 -7
-13 -19 -29 -26 -16 -6 -32 -18 -35 -26 -3 -8 -12 -14 -20 -14 -7 0 -16 -6
-19 -14 -3 -8 -20 -17 -37 -21 -17 -4 -34 -13 -37 -21 -3 -8 -9 -11 -14 -8 -5
3 -9 0 -9 -5 0 -6 -7 -11 -15 -11 -8 0 -15 -5 -15 -11 0 -5 -5 -7 -10 -4 -6 3
-17 -1 -26 -9 -8 -9 -22 -16 -30 -16 -8 0 -14 -4 -14 -10 0 -5 -7 -7 -15 -4
-8 4 -15 1 -15 -6 0 -6 -4 -9 -9 -5 -5 3 -12 1 -16 -5 -3 -5 -15 -10 -26 -10
-10 0 -19 -5 -19 -11 0 -6 -6 -9 -14 -6 -7 3 -17 2 -22 -3 -5 -5 -22 -11 -38
-14 -16 -3 -34 -10 -39 -15 -5 -5 -16 -7 -23 -4 -8 3 -21 0 -29 -7 -8 -6 -19
-9 -25 -5 -6 4 -16 2 -23 -3 -35 -27 -352 -47 -487 -30 -72 9 -184 29 -200 35
-8 4 -20 5 -27 4 -6 -1 -14 3 -18 9 -3 5 -15 10 -25 10 -10 0 -31 5 -47 12
-15 6 -34 10 -40 9 -7 -1 -13 2 -13 7 0 6 -16 13 -35 16 -19 4 -35 11 -35 16
0 4 -13 11 -30 15 -16 4 -30 11 -30 16 0 6 -5 7 -10 4 -6 -3 -10 -2 -10 4 0 5
-14 12 -30 16 -17 4 -30 11 -30 16 0 6 -4 8 -9 5 -5 -3 -11 0 -14 8 -3 8 -19
17 -36 21 -17 4 -31 11 -31 16 0 5 -11 14 -25 19 -14 5 -25 14 -25 19 0 5 -13
14 -30 21 -16 7 -30 19 -30 26 0 8 -7 14 -15 14 -8 0 -61 46 -117 103 -118
119 -124 126 -184 215 -24 37 -48 72 -52 77 -27 37 -42 67 -37 75 4 6 77 10
175 10 184 0 201 4 260 57 19 18 38 33 42 33 4 0 22 16 39 35 18 19 38 35 45
35 7 0 18 8 23 18 5 10 25 27 45 37 19 10 37 26 39 34 2 9 17 23 33 31 16 8
39 27 52 43 13 15 29 27 36 27 7 0 22 14 34 30 13 16 27 30 33 30 5 0 29 18
51 40 23 22 45 40 50 40 4 0 18 10 32 23 13 12 42 37 63 54 21 18 54 46 73 63
19 16 37 30 41 30 3 0 26 19 51 43 24 23 58 52 74 65 35 27 84 67 145 121 25
23 49 41 52 41 5 0 17 11 100 87 19 17 49 39 66 47 17 9 31 21 31 26 0 6 11 0
25 -12 14 -12 25 -27 25 -33 0 -7 9 -20 20 -30 20 -18 21 -18 34 1 8 10 17 44
21 74 4 30 10 59 13 65 3 5 7 16 9 25 1 8 12 58 23 110 12 52 24 113 27 135
l5 40 -224 -2 c-123 -1 -226 -2 -230 -3 -14 0 -8 -25 10 -41 20 -19 52 -57 52
-64 0 -14 -106 -105 -122 -105 -4 0 -14 15 -23 33 -8 17 -28 55 -45 82 -17 28
-36 61 -42 75 -7 14 -21 39 -32 55 -22 32 -44 69 -73 125 -10 19 -21 37 -24
40 -6 5 -41 66 -84 144 -20 38 -45 59 -45 38 0 -6 -16 -39 -36 -74 -20 -34
-44 -76 -54 -93 -9 -16 -28 -50 -42 -75 -21 -38 -108 -190 -168 -295 -9 -16
-45 -79 -80 -140 -34 -60 -70 -123 -80 -140 -9 -16 -45 -79 -80 -140 -34 -60
-70 -123 -80 -140 -9 -16 -32 -57 -50 -90 -19 -33 -36 -62 -39 -65 -4 -3 -24
-40 -46 -83 -22 -43 -47 -85 -55 -95 -9 -9 -22 -32 -29 -50 -8 -19 -19 -39
-25 -45 -6 -7 -19 -28 -28 -47 -10 -19 -22 -42 -27 -50 -60 -99 -91 -153 -91
-160 0 -4 -7 -10 -15 -14 -10 -4 -20 6 -30 31 -8 19 -15 38 -15 40 0 3 -7 19
-15 36 -19 41 -44 132 -62 227 -8 41 -18 89 -23 105 -21 78 4 518 31 551 5 6
6 14 2 17 -3 4 -2 17 4 30 6 12 17 43 23 70 7 26 17 50 21 53 5 3 9 12 9 21 0
9 14 45 30 80 17 34 30 66 30 69 0 3 14 26 30 51 17 24 30 47 30 51 0 4 17 30
38 57 20 28 46 63 56 80 25 38 217 235 229 235 5 0 20 10 32 23 31 31 67 57
80 57 5 0 21 12 34 25 13 14 29 25 37 25 8 0 14 4 14 10 0 5 11 12 25 16 14 3
25 10 25 15 0 5 7 9 15 9 17 0 56 20 66 34 4 5 12 5 18 2 6 -4 11 -2 11 3 0 6
20 16 45 23 25 7 45 15 45 19 0 3 27 12 60 19 33 7 63 17 66 21 3 5 16 6 30 3
13 -3 24 -2 24 4 0 13 66 26 183 35 26 2 51 7 55 11 7 8 200 2 292 -8z m-483
-953 c4 -10 28 -57 55 -105 43 -77 47 -90 36 -108 -7 -11 -16 -20 -20 -20 -5
0 -23 -14 -41 -31 -17 -17 -52 -48 -77 -68 -24 -20 -55 -48 -68 -63 -13 -16
-30 -28 -37 -28 -8 0 -24 -13 -37 -28 -13 -16 -43 -44 -67 -63 -24 -19 -66
-56 -94 -83 -28 -27 -71 -65 -96 -84 -25 -19 -52 -43 -59 -53 -7 -10 -22 -24
-34 -30 l-21 -11 21 28 c11 16 65 80 120 142 92 105 161 212 286 442 10 19 26
46 35 60 9 14 26 43 36 65 28 57 50 70 62 38z m1248 -721 c-12 -94 -21 -103
-28 -27 -5 69 4 102 25 89 6 -4 7 -28 3 -62z"/>
<path d="M2459 2082 c-29 -3 -37 -28 -60 -187 -6 -44 -15 -88 -20 -97 -20 -36
-1 -48 77 -48 85 0 139 21 169 66 16 24 17 34 6 72 -10 37 -9 48 4 68 20 32
19 87 -2 106 -18 15 -120 27 -174 20z m101 -86 c0 -32 -13 -46 -41 -46 -24 0
-29 4 -29 23 0 31 7 37 42 37 17 0 28 -5 28 -14z m0 -131 c0 -20 -49 -41 -68
-28 -28 17 -21 47 13 54 31 6 55 -5 55 -26z"/>
<path d="M2724 2083 c-6 -4 -11 -15 -11 -23 -1 -8 -8 -58 -17 -110 -9 -52 -19
-119 -22 -147 l-6 -53 75 0 c141 0 184 45 203 216 6 55 4 63 -18 89 -23 26
-31 29 -109 32 -46 2 -89 0 -95 -4z m134 -97 c2 -10 1 -42 -2 -70 -6 -44 -12
-55 -37 -70 -23 -14 -34 -15 -42 -7 -13 13 -10 80 5 98 5 7 7 17 3 23 -3 5 -3
19 0 31 9 27 68 24 73 -5z"/>
<path d="M3019 2068 c-7 -13 -14 -34 -15 -48 -1 -14 -9 -61 -17 -105 -20 -105
-20 -106 -19 -137 2 -25 6 -28 36 -28 29 0 36 5 47 33 6 17 13 50 15 72 3 41
5 57 24 159 9 47 8 61 -2 68 -24 15 -57 8 -69 -14z"/>
<path d="M3160 2065 c-6 -14 -10 -39 -10 -54 0 -15 -3 -31 -7 -35 -4 -4 -8
-23 -10 -44 -1 -20 -5 -50 -9 -67 -3 -16 -8 -49 -11 -72 l-5 -43 100 0 100 0
11 31 c16 47 16 48 -46 51 -55 3 -58 4 -61 31 -2 15 1 27 6 27 6 0 10 17 10
38 0 20 2 64 3 97 l4 60 -33 3 c-27 3 -34 -1 -42 -23z"/>
<path d="M3295 2049 c-3 -8 -7 -30 -9 -49 -2 -19 -7 -49 -11 -66 -4 -20 -3
-34 5 -39 13 -8 41 25 33 38 -3 5 0 29 7 53 11 39 11 47 -3 61 -14 14 -17 14
-22 2z"/>
</g>
</svg>
